# xmcd
#
# Track frame offsets: 
#        300
#        18995
#        36932
#        57338
#        85089
#        104586
#        124514
#        139648
#        159312
#        179174
#        195984
#        214628
#
# Disc length: 3114 seconds
#
# Revision: 0
# Processed by: cddbd v1.5.2PL0 Copyright (c) Steve Scherf et al.
# Submitted via: ExactAudioCopy v1.0b1
#
DISCID=a00c260c
DTITLE=Smokin' Joe Kubek and Bnois King - Have Blues, Will Travel
DYEAR=2010
DGENRE=Texas Blues
TTITLE0=Have Blues, Will Travel
TTITLE1=Got You Out Of My Blood
TTITLE2=Out Of Body, Out Of Mind
TTITLE3=RU4 Real?
TTITLE4=Payday In America
TTITLE5=Shadows In The Dark
TTITLE6=My Space Or Yours?
TTITLE7=Sleeping With One Eye Open
TTITLE8=My Guitar
TTITLE9=One Step At A Time
TTITLE10=Wishful Thinking
TTITLE11=What A Sight To See
EXTD=
EXTT0=
EXTT1=
EXTT2=
EXTT3=
EXTT4=
EXTT5=
EXTT6=
EXTT7=
EXTT8=
EXTT9=
EXTT10=
EXTT11=
PLAYORDER=
